<svg
  xmlns="http://www.w3.org/2000/svg"
  width="32"
  height="32"
  viewBox="0 0 32 32"
>
  <path
    fill="currentColor"
    d="M16 0A11 11 0 005 11c0 4.031 3.689 8.3 5.031 12.055 2 5.6 1.782 8.945 5.969 8.945 4.25 0 3.965-3.334 5.969-8.922C23.316 19.319 27 15 27 11A11 11 0 0016 0zm2.593 27.176l-4.959.62a47.142 47.142 0 01-.6-1.893c0-.01-.007-.022-.009-.032l6.189-.773c-.088.3-.183.606-.264.884-.129.449-.25.839-.357 1.194zm-5.857-2.268q-.271-.9-.615-1.908h7.766c-.122.36-.245.719-.352 1.059zM16 30a1.737 1.737 0 01-2-1.25l4.238-.53C17.628 29.873 17.181 30 16 30zm4.672-9h-9.333c-.5-1.079-1.1-2.16-1.686-3.217C8.353 15.448 7 13.033 7 11a9 9 0 0118 0c0 2.018-1.35 4.446-2.655 6.795-.585 1.054-1.178 2.131-1.673 3.205zM16 5a6.006 6.006 0 00-6 6 .5.5 0 001 0 5.006 5.006 0 015-5 .5.5 0 000-1z"
  />
</svg>
