<svg
  xmlns="http://www.w3.org/2000/svg"
  width="89.61"
  height="88"
  viewBox="0 0 89.61 88"
>
  <path
    fill="currentColor"
    d="M4.75 21.94c0 7.47 2.49 12.86 7.41 16.03 4.03 2.59 8.7 2.98 11.13 2.98.59 0 1.06-.02 1.39-.04 0 0-.77 5.02 2.95 9.98h-.17C21.02 50.89 0 52.23 0 69.52 0 87.1 19.31 87.99 23.18 87.99c.3 0 .48-.01.48-.01.04 0 .32.01.79.01 2.49 0 8.91-.31 14.88-3.21C47.07 81.03 51 74.49 51 65.36c0-8.83-5.98-14.08-10.35-17.92-2.67-2.34-4.97-4.36-4.97-6.32 0-2 1.68-3.5 3.81-5.41 3.45-3.08 6.69-7.47 6.69-15.75 0-7.29-.95-12.18-6.77-15.28.61-.31 2.75-.54 3.81-.68C46.38 3.56 51 3.07 51 .5V0H28.01C27.78.01 4.75.86 4.75 21.94zm37.12 45.07c.44 7.03-5.58 12.22-14.61 12.88-9.17.67-16.73-3.46-17.17-10.48-.21-3.37 1.27-6.68 4.18-9.32 2.95-2.67 6.99-4.31 11.39-4.64.52-.03 1.04-.05 1.55-.05 8.5-.01 14.25 4.98 14.66 11.61zm-6-49.88c2.26 7.93-1.15 16.23-6.58 17.76-.62.17-1.27.26-1.92.26-4.97 0-9.9-5.03-11.72-11.96-1.02-3.89-.94-7.3.23-10.57 1.15-3.22 3.21-5.39 5.81-6.12.63-.18 1.27-.27 1.92-.27 6.01.01 9.87 2.49 12.26 10.9zm38.74 17.28v-15h-9.5v15h-15v9.5h15v15h9.5v-15h15v-9.5h-15z"
  />
</svg>
