<svg
  xmlns="http://www.w3.org/2000/svg"
  width="32"
  height="32"
  viewBox="0 0 32 32"
>
  <path
    fill="currentColor"
    d="M29.192 4.792A9.632 9.632 0 0016 4.505a9.632 9.632 0 00-13.192.287 9.4 9.4 0 000 13.4l11.053 10.93a3.048 3.048 0 004.278 0l11.053-10.93a9.4 9.4 0 000-13.4zm-1.427 11.989l-11.052 10.93a1.016 1.016 0 01-1.425 0L4.235 16.781a7.429 7.429 0 010-10.579 7.6 7.6 0 0110.409-.222L16 7.2l1.356-1.219a7.6 7.6 0 0110.409.222 7.427 7.427 0 010 10.578zM9.252 7.026A4.247 4.247 0 005 11.271a.5.5 0 001 0 3.248 3.248 0 013.249-3.245.5.5 0 10.003-1z"
  />
</svg>
