<svg
  xmlns="http://www.w3.org/2000/svg"
  width="90"
  height="88.74"
  viewBox="0 0 90 88.74"
>
  <path
    fill="currentColor"
    d="M20.38 9.62c0 5.32-3.92 9.62-10.38 9.62-6.07 0-10-4.3-10-9.62C0 4.18 4.05 0 10.25 0s10 4.18 10.13 9.62zM.51 88.74v-61.9h19.24v61.9H.51zM31.26 46.58c0-7.72-.25-14.18-.5-19.75h16.71l.89 8.61h.38c2.53-4.05 8.73-10 19.12-10C80.51 25.44 90 33.93 90 52.15v36.58H70.76v-34.3c0-7.98-2.79-13.42-9.75-13.42-5.32 0-8.48 3.67-9.87 7.21-.51 1.26-.63 3.04-.63 4.81v35.7H31.26V46.58z"
  />
</svg>
