<svg
  xmlns="http://www.w3.org/2000/svg"
  width="90"
  height="58"
  viewBox="0 0 90 58"
>
  <path
    fill="currentColor"
    d="M2.97 5.43c2.44 1.31 36.24 19.47 37.5 20.14 1.26.68 2.89 1 4.53 1s3.27-.33 4.53-1c1.26-.68 35.06-18.83 37.5-20.14C89.47 4.12 91.78 0 87.3 0H2.7c-4.48 0-2.17 4.12.27 5.43zm85.09 10c-2.77 1.45-36.83 19.26-38.53 20.14-1.7.89-2.89 1-4.53 1s-2.83-.12-4.53-1c-1.7-.89-35.76-18.7-38.53-20.14C-.02 14.41 0 15.6 0 16.53v36.68C0 55.3 2.79 58 4.96 58h80.08c2.17 0 4.96-2.7 4.96-4.79V16.53c0-.92.02-2.12-1.94-1.1z"
  />
</svg>
