<svg
  xmlns="http://www.w3.org/2000/svg"
  width="32"
  height="32"
  viewBox="0 0 32 32"
>
  <path
    fill="currentColor"
    d="M29.4 2.58A8.546 8.546 0 0023.449 0a6.541 6.541 0 00-4.669 1.877l-4.867 4.9c-.015.014-.032.024-.047.038s-.013.019-.021.027L3.515 17.25a4.02 4.02 0 00-1.013 1.705L.153 27.463A6.849 6.849 0 000 28.5 3.5 3.5 0 003.5 32a7.142 7.142 0 001.157-.187l8.478-2.229a4.021 4.021 0 001.705-1.016l15.263-15.382c2.781-2.78 2.468-7.436-.703-10.606zM16.015 23.8a8.148 8.148 0 00-.719-2.628l9.454-9.453a4.876 4.876 0 01-.986 5c-.008.008-.017.012-.025.02l.013.013-7.728 7.789c.001-.248.013-.492-.009-.741zm-1.221-3.54a9.044 9.044 0 00-1.322-1.728 8.953 8.953 0 00-2.044-1.493L20.96 7.5a6.9 6.9 0 013.378 3.208zm-4.307-3.693a7.979 7.979 0 00-2.868-.6l7.7-7.762a4.8 4.8 0 014.588-1.061zm-6.318 13.31a4.739 4.739 0 01-.679.127A1.5 1.5 0 012 28.5a5.1 5.1 0 01.1-.563l1.053-3.814a4.74 4.74 0 014.733 4.774zm4.706-1.236A5.584 5.584 0 007.2 24.8a5.692 5.692 0 00-3.766-1.7l1-3.608a1.975 1.975 0 01.391-.684c2.006-1.436 5.091-1.012 7.234 1.133 2.267 2.266 2.617 5.586.871 7.568a2.13 2.13 0 01-.359.157zm19.818-16.864l-1.685 1.7c0-.226.027-.443.007-.674a8.834 8.834 0 00-8.472-7.84l1.657-1.67A4.547 4.547 0 0123.449 2a6.911 6.911 0 016.539 6.163 4.583 4.583 0 01-1.296 3.61z"
  />
</svg>
