<svg
  xmlns="http://www.w3.org/2000/svg"
  width="92"
  height="74.77"
  viewBox="0 0 92 74.77"
>
  <path
    fill="currentColor"
    d="M92 8.85c-3.39 1.5-7.02 2.52-10.84 2.97 3.9-2.34 6.89-6.04 8.3-10.44a37.993 37.993 0 01-11.99 4.58A18.837 18.837 0 0063.7 0C53.27 0 44.82 8.45 44.82 18.87c0 1.48.17 2.92.49 4.3-15.69-.79-29.6-8.3-38.9-19.72a18.744 18.744 0 00-2.56 9.49c0 6.55 3.33 12.32 8.4 15.71-3.09-.1-6-.95-8.55-2.36v.24c0 9.15 6.51 16.77 15.14 18.51a18.923 18.923 0 01-8.52.32c2.4 7.5 9.37 12.96 17.63 13.11a37.889 37.889 0 01-23.44 8.08c-1.52 0-3.03-.09-4.5-.27a53.364 53.364 0 0028.93 8.48c34.72 0 53.7-28.76 53.7-53.71 0-.82-.02-1.63-.05-2.44 3.68-2.65 6.88-5.97 9.41-9.76z"
  />
</svg>
